<?xml version="1.0" encoding="UTF-8" standalone="no"?>
<!-- Created with Inkscape (http://www.inkscape.org/) -->

<svg
   width="120mm"
   height="120mm"
   viewBox="0 0 120 120"
   version="1.1"
   id="svg1"
   xml:space="preserve"
   inkscape:version="1.4 (86a8ad7, 2024-10-11)"
   sodipodi:docname="logo.svg"
   xmlns:inkscape="http://www.inkscape.org/namespaces/inkscape"
   xmlns:sodipodi="http://sodipodi.sourceforge.net/DTD/sodipodi-0.dtd"
   xmlns="http://www.w3.org/2000/svg"
   xmlns:svg="http://www.w3.org/2000/svg"><sodipodi:namedview
     id="namedview1"
     pagecolor="#ffffff"
     bordercolor="#000000"
     borderopacity="0.25"
     inkscape:showpageshadow="2"
     inkscape:pageopacity="0.0"
     inkscape:pagecheckerboard="0"
     inkscape:deskcolor="#d1d1d1"
     inkscape:document-units="mm"
     inkscape:zoom="1.0690944"
     inkscape:cx="-54.251524"
     inkscape:cy="267.51613"
     inkscape:window-width="2560"
     inkscape:window-height="1057"
     inkscape:window-x="2552"
     inkscape:window-y="985"
     inkscape:window-maximized="1"
     inkscape:current-layer="g21" /><defs
     id="defs1" /><g
     inkscape:label="Слой 1"
     inkscape:groupmode="layer"
     id="layer1"
     transform="translate(-9.0548984,-57.430071)"><g
       inkscape:groupmode="layer"
       id="g21"
       inkscape:label="Witch Hat Background"
       transform="matrix(1.3385281,-0.82148198,0.82148198,1.3385281,-249.91798,-98.345354)"><path
         style="display:inline;fill:#8053d9;fill-opacity:1;fill-rule:evenodd;stroke-width:100;paint-order:stroke fill markers"
         d="m 87.016437,211.41255 c 3.87445,-25.11103 -2.715344,-19.21553 -5.800523,-23.33522 6.556234,-4.66796 12.49407,-4.95415 17.497697,-1.01664 7.489269,4.95237 16.182689,16.14833 16.391369,18.22109 0.84734,4.36793 1.03726,8.19811 0.56977,11.49054 l -12.44681,1.68192 z"
         id="path20"
         sodipodi:nodetypes="ccccccc" /><path
         style="display:inline;fill:#000000;fill-opacity:1;fill-rule:evenodd;stroke-width:100;paint-order:stroke fill markers"
         d="m 75.467598,222.99034 c 4.081074,-8.47327 1.668888,-16.36468 24.499625,-22.7059 17.522737,-3.11872 25.422457,4.50769 32.680747,8.39987 -3.37322,4.51373 -10.39456,6.1747 -21.69967,4.50618 -19.718033,-0.78855 -22.766519,11.85258 -35.480702,9.79985 z"
         id="path21"
         sodipodi:nodetypes="ccccc"
         inkscape:label="path21" /></g><g
       inkscape:groupmode="layer"
       id="layer3"
       inkscape:label="Witch Hat"
       transform="matrix(1.3385281,-0.82148199,0.82148199,1.3385281,-249.91798,-98.345354)"><path
         style="display:inline;fill:#8053d9;fill-opacity:1;fill-rule:evenodd;stroke-width:100;paint-order:stroke fill markers"
         d="m 87.016437,211.41255 c 3.87445,-25.11103 -2.715344,-19.21553 -5.800523,-23.33522 6.556234,-4.66796 12.49407,-4.95415 17.497697,-1.01664 7.489269,4.95237 16.182689,16.14833 16.391369,18.22109 0.84734,4.36793 1.03726,8.19811 0.56977,11.49054 l -12.44681,1.68192 z"
         id="path10"
         sodipodi:nodetypes="ccccccc" /><path
         style="display:inline;fill:#9f7fe5;fill-opacity:1;fill-rule:evenodd;stroke-width:100;paint-order:stroke fill markers"
         d="m 75.467598,222.99034 c 4.081074,-8.47327 1.668888,-16.36468 24.499625,-22.7059 17.522737,-3.11872 25.422457,4.50769 32.680747,8.39987 -3.37322,4.51373 -10.39456,6.1747 -21.69967,4.50618 -19.718033,-0.78855 -22.766519,11.85258 -35.480702,9.79985 z"
         id="path9"
         sodipodi:nodetypes="ccccc" /></g><g
       id="g1"
       inkscape:label="Fluttershy"><path
         style="display:inline;fill:#de7ab0"
         d="m 76.11094,168.40501 c -3.659882,-0.33562 -8.129765,-1.33581 -11.169621,-2.49935 l -1.742786,-0.66707 -1.760412,-2.43827 C 51.638569,149.2274 44.53838,135.58844 41.791554,125.06066 c -0.977716,-3.7473 -1.219582,-5.43049 -1.235974,-8.60136 -0.01765,-3.41374 0.273621,-4.95993 1.367142,-7.25739 0.597946,-1.25627 0.995664,-1.79005 2.269831,-3.04632 l 2.055291,-1.81704 c 5.284741,15.58786 10.169846,22.19754 10.169846,22.19754 2.737073,5.58793 31.476359,30.56367 33.07547,32.97672 1.167104,1.76115 1.846655,7.03359 1.653814,7.21675 -0.183082,0.17389 -4.040228,1.04016 -6.020529,1.34669 -1.723738,0.26681 -7.424193,0.47469 -9.015511,0.32876 z m 22.883517,-25.7331 c 0.910041,-2.58443 3.792263,-8.71962 4.320313,-9.7489 l 0.59455,-1.00288 c 2.05011,1.58191 3.85851,3.40926 5.68025,5.23878 l -0.92517,1.6405 c -0.28775,0.51024 -0.74877,1.86082 -3.0442,3.15785 -2.32784,1.55894 -4.92937,2.45056 -7.550834,3.34182 z m -1.228063,-8.20352 C 0,0 0,0 97.766394,134.46839 Z m 10.536736,-18.1492 -2.61607,-10.8569 c -0.14287,-0.59294 -1.21944,-1.79578 -1.92257,-2.38688 -0.30773,-0.2587 -1.09257,-0.81823 -1.81011,-1.17298 -2.231225,-1.1031 -4.759296,-1.02564 -7.370698,0.22584 -2.122963,1.0174 -4.210693,2.6235 -5.584419,4.29612 l -0.790554,1.30065 c -1.867574,0.49555 -3.749874,0.92954 -5.631136,1.36896 l -23.969269,-6.52735 -1.213601,-1.52531 c -3.708888,-4.661502 0,0 -4.232165,-4.883957 L 53.84967,95.14329 c 1.035783,-1.528643 4.227502,-4.538485 6.044173,-5.770696 10.56838,-7.168315 26.795276,-8.277531 38.762918,-2.649702 3.143779,1.478374 5.580539,3.14821 8.054429,5.519442 4.76004,4.562518 7.62144,10.419226 8.67991,17.765986 0.27226,1.88975 0.30335,9.87461 0.0403,10.34154 -0.14434,0.2562 -0.52444,3.46231 -0.52444,3.46231 -6.60383,-7.49298 -4.54522,1.05042 -6.60383,-7.49298 z"
         id="path7"
         inkscape:label="Hair"
         sodipodi:nodetypes="sscssssscssssssssccsscssssssssscccscssssssss" /><path
         style="display:inline;fill:#fbf593"
         d="m 89.655608,165.20429 c -2.420202,-5.1791 -6.444654,-9.80484 -16.232591,-18.65789 -2.710323,-2.45144 -5.645592,-5.14373 -6.52282,-5.98286 -3.619217,-3.46201 -7.31701,-7.88538 -9.28978,-11.11261 -0.823993,-1.34796 -2.771754,-4.93683 -2.692217,-5.01637 0.08854,-0.0885 6.52527,-1.97311 6.730004,-1.97311 0.118151,0 1.070816,1.08175 1.234755,1.60183 1.303875,4.13637 5.385913,7.34689 10.382097,8.29465 6.775108,1.28521 11.243339,-1.8348 13.278529,-9.0773 2.103816,-7.48669 1.139397,-8.03734 1.821378,-7.97461 0.587827,0.0557 2.558332,4.21966 6.736555,7.25554 0.802833,0.58333 0.860852,0.71818 2.420659,0.72653 1.840218,0.01 2.893023,0.43039 3.052503,1.04023 0.23946,0.91572 1.68735,-0.0943 3.3725,-1.78455 1.71883,-1.72404 1.4227,-3.6806 3.15006,-6.17604 l 0.39313,-1.72015 1.52129,0.10937 c 1.54083,0.11078 2.24426,0.54521 4.48792,3.49827 3.91108,5.14767 11.17298,17.20133 12.06622,20.02812 0.20489,0.64838 0.18013,0.73738 -0.54817,1.97115 -1.09919,1.86204 -2.06666,3.06761 -3.78118,4.71172 -4.07173,3.90454 -10.32868,6.86114 -20.29665,9.59081 -1.484061,0.40641 -2.714754,0.75289 -2.734873,0.76996 -0.02012,0.0171 0.384184,0.87472 0.89845,1.90588 0.514266,1.03115 1.168273,2.5504 1.453343,3.37609 l 0.51832,1.50126 -0.43119,0.33683 c -1.285687,1.00431 -7.270111,3.67411 -9.788027,4.36668 -0.356389,0.098 -0.479388,-0.0669 -1.200215,-1.60943 z m 4.133238,-18.29854 c 3.105068,-1.3147 8.112844,-3.8359 11.888794,-5.9855 1.92162,-1.09395 3.5681,-2.06325 3.65885,-2.154 0.10054,-0.10055 -0.38932,-0.74642 -1.25391,-1.65325 -2.04656,-2.14656 -4.24718,-4.59613 -6.15894,-6.85569 -0.91725,-1.08413 -1.72988,-2.03969 -1.80584,-2.12346 -0.076,-0.0838 -0.27435,0.31942 -0.440883,0.89598 -0.776669,2.68891 -2.707125,5.18992 -5.377308,6.9666 -1.723743,1.14694 -2.938217,1.71566 -5.371534,2.51541 -0.982986,0.32307 -1.815079,0.6709 -1.849096,0.77295 -0.134489,0.40347 0.542159,2.52521 1.293187,4.05501 0.731488,1.49 2.922049,4.38901 3.316437,4.38901 0.08597,0 1.03108,-0.37038 2.100243,-0.82306 z M 50.163595,118.64546 c -1.910627,-3.02526 -3.514828,-7.11196 -4.053512,-10.3263 -0.811021,-4.8394 0.129717,-10.802058 2.076969,-13.164413 0.557069,-0.675821 0.589442,-0.688459 1.518037,-0.59262 1.890898,0.195158 4.414354,1.982838 6.781536,4.804214 0.748285,0.891859 1.559712,1.922569 1.803171,2.290459 l 0.442653,0.66889 1.387054,-0.26041 c 1.830143,-0.34359 6.872499,-0.37617 8.644447,-0.0558 1.917237,0.34659 4.485088,1.19041 6.393831,2.10108 1.592566,0.75982 5.254671,3.09884 6.482056,4.14015 l 0.937736,0.84329 c -4.110942,2.54069 -9.134438,2.83529 -13.81123,3.58475 l -9.099093,2.19392 -4.012402,3.15823 c -2.032304,1.59966 -3.92619,2.48913 -4.556625,1.77447 -0.09951,-0.1128 -0.491142,-0.45766 -0.934628,-1.15987 z m 38.308944,-11.58857 c 0.536015,-1.00156 3.704003,-3.72115 5.260597,-4.51603 0.663518,-0.33882 0.697224,-0.33976 0.936846,-0.0259 0.257317,0.33701 0.880423,1.86465 1.072143,2.62853 0.728456,3.46611 -4.750877,2.85017 -6.883753,2.91894 -0.524971,0.13468 -0.54223,-0.71329 -0.385833,-1.00552 z"
         id="path8"
         inkscape:label="Skin"
         sodipodi:nodetypes="sssscsssscscssscssssssssscsssssssssssssssssssssscscsscscsssssssssss" /><path
         style="display:inline;fill:#000000"
         d="m 45.968242,133.22204 c -0.47065,-0.41428 -1.083646,-1.23865 -1.475378,-1.98412 -0.776521,-1.47772 -2.133696,-5.38261 -1.936022,-5.57036 5.519421,-3.82074 11.074589,-7.59014 16.620182,-11.3729 15.379121,-3.37694 30.603815,-7.46609 45.995246,-10.78513 l 0.83814,-0.17205 0.5712,1.27466 c 0.31416,0.70107 0.77638,2.04072 1.02717,2.97701 0.40284,1.50401 0.45637,2.05729 0.45945,4.74867 0.004,3.57982 -0.26963,4.88903 -1.57792,7.54708 -1.42615,2.8975 -3.26684,4.51579 -5.85402,5.14673 -0.3696,0.0901 -0.49159,0.0416 -0.56084,-0.22323 -0.184087,-0.70397 -0.961065,-0.97751 -3.073782,-1.08216 -1.911184,-0.0947 -2.033978,-0.12488 -2.720937,-0.66947 -1.384384,-1.09748 -3.28091,-3.27209 -4.582412,-5.25433 l -1.312531,-1.99904 -0.210213,2.2095 c -0.572577,6.01821 -2.009011,9.56611 -4.972394,12.28152 -2.188095,2.00499 -4.634404,2.9196 -7.809021,2.9196 -5.774496,0 -11.422967,-3.80043 -13.268254,-8.92722 -0.363115,-1.00885 -0.451438,-1.12122 -0.810413,-1.03113 -0.359611,0.0903 -11.337594,3.41925 -11.838948,3.59007 -0.147354,0.0502 -0.130057,0.38057 0.06298,1.20281 0.480387,2.04624 0.01461,4.51724 -1.035989,5.49602 -0.681629,0.63504 -1.576816,0.52116 -2.53529,-0.32253 z"
         id="path2"
         inkscape:label="Sunglasses"
         sodipodi:nodetypes="ssscscsscscscsscsssscsssss" /><path
         style="display:inline;fill:#666666"
         d="m 80.026989,128.68556 c -0.626191,-0.72445 -2.145569,-2.56216 -3.376395,-4.0838 -2.63254,-3.25454 -5.981983,-6.64468 -8.654029,-8.75919 -1.051361,-0.83199 -1.881955,-1.54232 -1.845763,-1.57852 0.08768,-0.0877 9.564654,-2.55341 9.813974,-2.55341 0.39435,0 4.073106,2.20991 4.937514,2.96607 1.472853,1.28841 1.678667,2.57808 0.454341,2.84699 -0.919927,0.20205 -1.661794,0.76885 -1.661794,1.26964 0,1.01458 0.956455,2.35849 3.52897,4.95853 l 1.719131,1.73753 -0.237206,0.59201 c -0.505409,1.26136 -1.427088,2.35911 -2.886794,3.43826 l -0.65342,0.48307 z m 21.619221,-7.33979 c -1.990662,-3.09224 -5.341519,-7.48663 -8.478967,-11.1195 -0.832741,-0.96423 -1.47648,-1.79074 -1.430532,-1.83669 0.103271,-0.10327 5.538856,-1.6948 5.791452,-1.69573 0.100447,-3.7e-4 0.456356,0.50332 0.790908,1.1193 1.733879,3.19244 4.108449,6.26669 6.444899,8.34393 0.85386,0.75913 1.27251,1.26194 1.27251,1.52833 0,0.84154 -2.92617,4.78293 -3.54533,4.77535 -0.0705,-8.6e-4 -0.45071,-0.50261 -0.84494,-1.11499 z"
         id="path4"
         inkscape:label="Sunglasses shine"
         sodipodi:nodetypes="ssssssssscsscssssssssss" /></g></g></svg>
